<svg
  width="40"
  height="48"
  viewBox="0 0 40 48"
  xmlns="http://www.w3.org/2000/svg"
>
  <defs>
    <!-- Light -->
    <linearGradient id="grad-light" x1="0%" y1="0%" x2="100%" y2="0%">
      <stop offset="0%" stop-color="#c084fc"/>
      <stop offset="50%" stop-color="#f9a8d4"/>
      <stop offset="100%" stop-color="#fdba74"/>
    </linearGradient>

    <!-- Medium -->
    <linearGradient id="grad-medium" x1="0%" y1="0%" x2="100%" y2="0%">
      <stop offset="0%" stop-color="#a855f7"/>
      <stop offset="50%" stop-color="#f472b6"/>
      <stop offset="100%" stop-color="#fb923c"/>
    </linearGradient>

    <!-- Dark -->
    <linearGradient id="grad-dark" x1="0%" y1="0%" x2="100%" y2="0%">
      <stop offset="0%" stop-color="#7c3aed"/>
      <stop offset="50%" stop-color="#ec4899"/>
      <stop offset="100%" stop-color="#f97316"/>
    </linearGradient>
  </defs>

  <g fill-rule="evenodd" clip-rule="evenodd">
    <!-- Top (light) -->
    <path
      fill="url(#grad-light)"
      d="
        m34.5868 8.40061-9.6868-2.59556c-.6687-.17919-1.2108.23679-1.2108.92911v10.02854
        c0 .6923.5421 1.3988 1.2108 1.578l9.6868 2.5955
        c.6687.1792 1.2109-.2368 1.2109-.9291v-10.02848
        c0-.69232-.5422-1.39882-1.2109-1.57801z
        m-9.6868-6.35625
        c-2.6749-.71674-4.8434.94718-4.8434 3.71647v10.02847
        c0 2.7693 2.1685 5.5953 4.8434 6.312l9.6868 2.5956
        c2.6749.7168 4.8434-.9472 4.8434-3.7165v-10.0284
        c0-2.76934-2.1685-5.59533-4.8434-6.31207z
      "
    />

    <!-- Middle (medium) -->
    <path
      fill="url(#grad-medium)"
      d="
        m26.9812 16.5707-12.1085-3.2444c-.6687-.1792-1.2109.2368-1.2109.9291v12.5356
        c0 .6923.5422 1.3988 1.2109 1.578l12.1085 3.2445
        c.6687.1792 1.2108-.2368 1.2108-.9291v-12.5356
        c0-.6924-.5421-1.3989-1.2108-1.5781z
        m-12.1085-7.0051
        c-2.6749-.71674-4.8434.9472-4.8434 3.7165v12.5356
        c0 2.7693 2.1685 5.5953 4.8434 6.312l12.1085 3.2445
        c2.6749.7167 4.8433-.9472 4.8433-3.7165v-12.5356
        c0-2.7693-2.1684-5.5953-4.8433-6.312z
      "
    />

    <!-- Bottom (dark) -->
    <path
      fill="url(#grad-dark)"
      d="
        m19.3736 24.7409-14.53021-3.8934c-.66873-.1792-1.21085.2368-1.21085.9291v15.0428
        c0 .6923.54212 1.3988 1.21085 1.578l14.53021 3.8933
        c.6687.1792 1.2108-.2368 1.2108-.9291v-15.0427
        c0-.6923-.5421-1.3988-1.2108-1.578z
        m-14.53021-7.6541
        c-2.67493-.7167-4.84339.9472-4.84339 3.7165v15.0427
        c0 2.7693 2.16846 5.5953 4.84339 6.3121l14.53021 3.8933
        c2.6749.7168 4.8433-.9472 4.8433-3.7164v-15.0428
        c0-2.7693-2.1684-5.5953-4.8433-6.312z
      "
    />
  </g>
</svg>
